<svg width="170" height="44" viewBox="0 0 170 44" fill="none" xmlns="http://www.w3.org/2000/svg">
<g filter="url(#filter0_d_1_341)">
<rect x="2" y="1" width="166" height="40" rx="8" fill="white"/>
<rect x="2.5" y="1.5" width="165" height="39" rx="7.5" stroke="#27AE60"/>
<g clip-path="url(#clip0_1_341)">
<path d="M21.6703 29.3346L22.797 25.1946C22.0546 23.922 21.6646 22.4746 21.667 21.0013C21.667 16.3988 25.3978 12.668 30.0003 12.668C34.6028 12.668 38.3337 16.3988 38.3337 21.0013C38.3337 25.6038 34.6028 29.3346 30.0003 29.3346C28.5277 29.337 27.0809 28.9473 25.8087 28.2055L21.6703 29.3346ZM26.9928 17.0913C26.8852 17.098 26.7801 17.1263 26.6837 17.1746C26.5933 17.2258 26.5107 17.2898 26.4387 17.3646C26.3387 17.4588 26.282 17.5405 26.2212 17.6196C25.9132 18.0205 25.7475 18.5125 25.7503 19.018C25.752 19.4263 25.8587 19.8238 26.0253 20.1955C26.3662 20.9471 26.927 21.743 27.6678 22.4805C27.8462 22.658 28.0203 22.8363 28.2078 23.0021C29.1273 23.8117 30.223 24.3955 31.4078 24.7071L31.882 24.7796C32.0362 24.788 32.1903 24.7763 32.3453 24.7688C32.588 24.7563 32.825 24.6906 33.0395 24.5763C33.1778 24.503 33.2428 24.4663 33.3587 24.393C33.3587 24.393 33.3945 24.3696 33.4628 24.318C33.5753 24.2346 33.6445 24.1755 33.7378 24.078C33.807 24.0063 33.867 23.9221 33.9128 23.8263C33.9778 23.6905 34.0428 23.4313 34.0695 23.2155C34.0895 23.0505 34.0837 22.9605 34.0812 22.9046C34.0778 22.8155 34.0037 22.723 33.9228 22.6838L33.4378 22.4663C33.4378 22.4663 32.7128 22.1505 32.2703 21.9488C32.2237 21.9285 32.1737 21.9169 32.1228 21.9146C32.0658 21.9088 32.0082 21.9152 31.9539 21.9334C31.8995 21.9517 31.8498 21.9814 31.8078 22.0205V22.0188C31.8037 22.0188 31.7478 22.0663 31.1453 22.7963C31.1108 22.8428 31.0631 22.8779 31.0085 22.8972C30.9539 22.9165 30.8948 22.9191 30.8387 22.9046C30.7844 22.8901 30.7312 22.8717 30.6795 22.8496C30.5762 22.8063 30.5403 22.7896 30.4695 22.7588L30.4653 22.7571C29.9886 22.549 29.5472 22.2678 29.157 21.9238C29.052 21.8321 28.9545 21.7321 28.8545 21.6355C28.5267 21.3215 28.2409 20.9663 28.0045 20.5788L27.9553 20.4996C27.92 20.4464 27.8915 20.3891 27.8703 20.3288C27.8387 20.2063 27.9212 20.108 27.9212 20.108C27.9212 20.108 28.1237 19.8863 28.2178 19.7663C28.2962 19.6666 28.3694 19.5628 28.437 19.4555C28.5353 19.2971 28.5662 19.1346 28.5145 19.0088C28.2812 18.4388 28.0395 17.8713 27.7912 17.308C27.742 17.1963 27.5962 17.1163 27.4637 17.1005C27.4187 17.0955 27.3737 17.0905 27.3287 17.0871C27.2168 17.0816 27.1046 17.0835 26.9928 17.0913Z" fill="#27AE60"/>
</g>
<path d="M60.7727 19H59.3636C59.2803 18.5947 59.1345 18.2386 58.9261 17.9318C58.7216 17.625 58.4716 17.3674 58.1761 17.1591C57.8845 16.947 57.5606 16.7879 57.2045 16.6818C56.8485 16.5758 56.4773 16.5227 56.0909 16.5227C55.3864 16.5227 54.7481 16.7008 54.1761 17.0568C53.608 17.4129 53.1553 17.9375 52.8182 18.6307C52.4848 19.3239 52.3182 20.1742 52.3182 21.1818C52.3182 22.1894 52.4848 23.0398 52.8182 23.733C53.1553 24.4261 53.608 24.9508 54.1761 25.3068C54.7481 25.6629 55.3864 25.8409 56.0909 25.8409C56.4773 25.8409 56.8485 25.7879 57.2045 25.6818C57.5606 25.5758 57.8845 25.4186 58.1761 25.2102C58.4716 24.9981 58.7216 24.7386 58.9261 24.4318C59.1345 24.1212 59.2803 23.7652 59.3636 23.3636H60.7727C60.6667 23.9583 60.4735 24.4905 60.1932 24.9602C59.9129 25.4299 59.5644 25.8295 59.1477 26.1591C58.7311 26.4848 58.2633 26.733 57.7443 26.9034C57.2292 27.0739 56.678 27.1591 56.0909 27.1591C55.0985 27.1591 54.2159 26.9167 53.4432 26.4318C52.6705 25.947 52.0625 25.2576 51.6193 24.3636C51.1761 23.4697 50.9545 22.4091 50.9545 21.1818C50.9545 19.9545 51.1761 18.8939 51.6193 18C52.0625 17.1061 52.6705 16.4167 53.4432 15.9318C54.2159 15.447 55.0985 15.2045 56.0909 15.2045C56.678 15.2045 57.2292 15.2898 57.7443 15.4602C58.2633 15.6307 58.7311 15.8807 59.1477 16.2102C59.5644 16.536 59.9129 16.9337 60.1932 17.4034C60.4735 17.8693 60.6667 18.4015 60.7727 19ZM64.2088 21.75V27H62.8679V15.3636H64.2088V19.6364H64.3224C64.527 19.1856 64.8338 18.8277 65.2429 18.5625C65.6558 18.2936 66.205 18.1591 66.8906 18.1591C67.4853 18.1591 68.0062 18.2784 68.4531 18.517C68.9001 18.7519 69.2467 19.1136 69.4929 19.6023C69.7429 20.0871 69.8679 20.7045 69.8679 21.4545V27H68.527V21.5455C68.527 20.8523 68.3471 20.3163 67.9872 19.9375C67.6312 19.5549 67.1368 19.3636 66.5043 19.3636C66.0649 19.3636 65.6709 19.4564 65.3224 19.642C64.9777 19.8277 64.705 20.0985 64.5043 20.4545C64.3073 20.8106 64.2088 21.2424 64.2088 21.75ZM74.8892 27.2045C74.3362 27.2045 73.8343 27.1004 73.3835 26.892C72.9328 26.6799 72.5748 26.375 72.3097 25.9773C72.0445 25.5758 71.9119 25.0909 71.9119 24.5227C71.9119 24.0227 72.0104 23.6174 72.2074 23.3068C72.4044 22.9924 72.6676 22.7462 72.9972 22.5682C73.3267 22.3902 73.6903 22.2576 74.0881 22.1705C74.4896 22.0795 74.893 22.0076 75.2983 21.9545C75.8286 21.8864 76.2585 21.8352 76.5881 21.8011C76.9214 21.7633 77.1638 21.7008 77.3153 21.6136C77.4706 21.5265 77.5483 21.375 77.5483 21.1591V21.1136C77.5483 20.553 77.3949 20.1174 77.0881 19.8068C76.785 19.4962 76.3248 19.3409 75.7074 19.3409C75.0672 19.3409 74.5653 19.4811 74.2017 19.7614C73.8381 20.0417 73.5824 20.3409 73.4347 20.6591L72.1619 20.2045C72.3892 19.6742 72.6922 19.2614 73.071 18.9659C73.4536 18.6667 73.8703 18.4583 74.321 18.3409C74.7756 18.2197 75.2225 18.1591 75.6619 18.1591C75.9422 18.1591 76.2642 18.1932 76.6278 18.2614C76.9953 18.3258 77.3494 18.4602 77.6903 18.6648C78.035 18.8693 78.321 19.178 78.5483 19.5909C78.7756 20.0038 78.8892 20.5568 78.8892 21.25V27H77.5483V25.8182H77.4801C77.3892 26.0076 77.2377 26.2102 77.0256 26.4261C76.8134 26.642 76.5313 26.8258 76.179 26.9773C75.8267 27.1288 75.3968 27.2045 74.8892 27.2045ZM75.0938 26C75.6241 26 76.071 25.8958 76.4347 25.6875C76.8021 25.4792 77.0786 25.2102 77.2642 24.8807C77.4536 24.5511 77.5483 24.2045 77.5483 23.8409V22.6136C77.4915 22.6818 77.3665 22.7443 77.1733 22.8011C76.9839 22.8542 76.7642 22.9015 76.5142 22.9432C76.268 22.9811 76.0275 23.0152 75.7926 23.0455C75.5616 23.072 75.3741 23.0947 75.2301 23.1136C74.8816 23.1591 74.5559 23.233 74.2528 23.3352C73.9536 23.4337 73.7112 23.5833 73.5256 23.7841C73.3438 23.9811 73.2528 24.25 73.2528 24.5909C73.2528 25.0568 73.4252 25.4091 73.7699 25.6477C74.1184 25.8826 74.5597 26 75.0938 26ZM85.1321 18.2727V19.4091H80.6094V18.2727H85.1321ZM81.9276 16.1818H83.2685V24.5C83.2685 24.8788 83.3234 25.1629 83.4332 25.3523C83.5469 25.5379 83.6908 25.6629 83.8651 25.7273C84.0431 25.7879 84.2306 25.8182 84.4276 25.8182C84.5753 25.8182 84.6965 25.8106 84.7912 25.7955C84.8859 25.7765 84.9616 25.7614 85.0185 25.75L85.2912 26.9545C85.2003 26.9886 85.0734 27.0227 84.9105 27.0568C84.7476 27.0947 84.5412 27.1136 84.2912 27.1136C83.9124 27.1136 83.5412 27.0322 83.1776 26.8693C82.8177 26.7064 82.5185 26.4583 82.2798 26.125C82.045 25.7917 81.9276 25.3712 81.9276 24.8636V16.1818ZM93.9446 27L90.7628 15.3636H92.1946L94.6264 24.8409H94.7401L97.2173 15.3636H98.8082L101.286 24.8409H101.399L103.831 15.3636H105.263L102.081 27H100.626L98.0582 17.7273H97.9673L95.3991 27H93.9446ZM106.837 27V18.2727H108.178V27H106.837ZM107.518 16.8182C107.257 16.8182 107.032 16.7292 106.842 16.5511C106.657 16.3731 106.564 16.1591 106.564 15.9091C106.564 15.6591 106.657 15.4451 106.842 15.267C107.032 15.089 107.257 15 107.518 15C107.78 15 108.003 15.089 108.189 15.267C108.378 15.4451 108.473 15.6591 108.473 15.9091C108.473 16.1591 108.378 16.3731 108.189 16.5511C108.003 16.7292 107.78 16.8182 107.518 16.8182ZM114.429 18.2727V19.4091H109.906V18.2727H114.429ZM111.224 16.1818H112.565V24.5C112.565 24.8788 112.62 25.1629 112.73 25.3523C112.844 25.5379 112.988 25.6629 113.162 25.7273C113.34 25.7879 113.527 25.8182 113.724 25.8182C113.872 25.8182 113.993 25.8106 114.088 25.7955C114.183 25.7765 114.259 25.7614 114.315 25.75L114.588 26.9545C114.497 26.9886 114.37 27.0227 114.207 27.0568C114.045 27.0947 113.838 27.1136 113.588 27.1136C113.209 27.1136 112.838 27.0322 112.474 26.8693C112.115 26.7064 111.815 26.4583 111.577 26.125C111.342 25.7917 111.224 25.3712 111.224 24.8636V16.1818ZM117.974 21.75V27H116.634V15.3636H117.974V19.6364H118.088C118.293 19.1856 118.599 18.8277 119.009 18.5625C119.421 18.2936 119.971 18.1591 120.656 18.1591C121.251 18.1591 121.772 18.2784 122.219 18.517C122.666 18.7519 123.012 19.1136 123.259 19.6023C123.509 20.0871 123.634 20.7045 123.634 21.4545V27H122.293V21.5455C122.293 20.8523 122.113 20.3163 121.753 19.9375C121.397 19.5549 120.902 19.3636 120.27 19.3636C119.83 19.3636 119.437 19.4564 119.088 19.642C118.743 19.8277 118.471 20.0985 118.27 20.4545C118.073 20.8106 117.974 21.2424 117.974 21.75ZM138.405 15.3636H139.814V23.0682C139.814 23.8636 139.626 24.5739 139.251 25.1989C138.88 25.8201 138.356 26.3106 137.678 26.6705C137 27.0265 136.204 27.2045 135.291 27.2045C134.378 27.2045 133.583 27.0265 132.905 26.6705C132.227 26.3106 131.7 25.8201 131.325 25.1989C130.954 24.5739 130.768 23.8636 130.768 23.0682V15.3636H132.178V22.9545C132.178 23.5227 132.303 24.0284 132.553 24.4716C132.803 24.911 133.159 25.2576 133.621 25.5114C134.087 25.7614 134.643 25.8864 135.291 25.8864C135.939 25.8864 136.496 25.7614 136.962 25.5114C137.428 25.2576 137.784 24.911 138.03 24.4716C138.28 24.0284 138.405 23.5227 138.405 22.9545V15.3636ZM148.628 20.2273L147.423 20.5682C147.348 20.3674 147.236 20.1723 147.088 19.983C146.944 19.7898 146.747 19.6307 146.497 19.5057C146.247 19.3807 145.927 19.3182 145.537 19.3182C145.003 19.3182 144.558 19.4413 144.202 19.6875C143.849 19.9299 143.673 20.2386 143.673 20.6136C143.673 20.947 143.795 21.2102 144.037 21.4034C144.279 21.5966 144.658 21.7576 145.173 21.8864L146.469 22.2045C147.249 22.3939 147.83 22.6837 148.213 23.0739C148.596 23.4602 148.787 23.9583 148.787 24.5682C148.787 25.0682 148.643 25.5152 148.355 25.9091C148.071 26.303 147.673 26.6136 147.162 26.8409C146.651 27.0682 146.056 27.1818 145.378 27.1818C144.488 27.1818 143.751 26.9886 143.168 26.6023C142.584 26.2159 142.215 25.6515 142.06 24.9091L143.332 24.5909C143.454 25.0606 143.683 25.4129 144.02 25.6477C144.361 25.8826 144.806 26 145.355 26C145.98 26 146.476 25.8674 146.844 25.6023C147.215 25.3333 147.401 25.0114 147.401 24.6364C147.401 24.3333 147.295 24.0795 147.082 23.875C146.87 23.6667 146.545 23.5114 146.105 23.4091L144.651 23.0682C143.851 22.8788 143.264 22.5852 142.889 22.1875C142.518 21.786 142.332 21.2841 142.332 20.6818C142.332 20.1894 142.471 19.7538 142.747 19.375C143.027 18.9962 143.408 18.6989 143.889 18.483C144.374 18.267 144.923 18.1591 145.537 18.1591C146.401 18.1591 147.079 18.3485 147.571 18.7273C148.067 19.1061 148.42 19.6061 148.628 20.2273Z" fill="#27AE60"/>
</g>
<defs>
<filter id="filter0_d_1_341" x="0" y="0" width="170" height="44" filterUnits="userSpaceOnUse" color-interpolation-filters="sRGB">
<feFlood flood-opacity="0" result="BackgroundImageFix"/>
<feColorMatrix in="SourceAlpha" type="matrix" values="0 0 0 0 0 0 0 0 0 0 0 0 0 0 0 0 0 0 127 0" result="hardAlpha"/>
<feOffset dy="1"/>
<feGaussianBlur stdDeviation="1"/>
<feColorMatrix type="matrix" values="0 0 0 0 0.0627451 0 0 0 0 0.0941176 0 0 0 0 0.156863 0 0 0 0.05 0"/>
<feBlend mode="normal" in2="BackgroundImageFix" result="effect1_dropShadow_1_341"/>
<feBlend mode="normal" in="SourceGraphic" in2="effect1_dropShadow_1_341" result="shape"/>
</filter>
<clipPath id="clip0_1_341">
<rect width="20" height="20" fill="white" transform="translate(20 11)"/>
</clipPath>
</defs>
</svg>
